<svg viewBox="0 0 140 140" className='houseIcon houseContent'><path fill-rule="evenodd" d="M114.993 85.5l-.19-.079c-12.146-5.031-21.8-.586-27.934 4.282 3.004-7.665 3.743-14.562 3.876-16.104.933-1.878 2.211-3.02 3.903-3.488 4.524-1.255 10.413 2.656 10.47 2.695l1.585 1.064 9.327-23.036-29.148-28.336-23.135 2.634c-.507.079-1.007.173-1.507.27-4.476-5.788-10.137-10.545-16.683-13.293l24.376-5.784 51.1 12.122.496 31.02c0 12.898-2.263 25.039-6.536 36.032zM70.089 52.745c.838 8.908-.163 30.413-27.305 38.253l-13.94-24.602c1.095-11.163 6.282-21.056 14.042-28.05l.265.352c6.677 8.907 6.69 18.348.034 26.584l-.97 1.198 2.408 1.93.969-1.2c7.624-9.434 7.636-20.214.034-30.353l-.374-.498a41.21 41.21 0 0115.775-7.56c4.891 6.774 8.231 15.12 9.062 23.946zM94.142 34.13c-3.272 2.664-7.345 5.98-6.455 20.564.565 9.3.12 16.678.02 18.106l-.004.011-.016.293c-.006.097-.607 9.7-5.22 19.157-5.95 12.205-15.521 18.442-28.454 18.55L44.34 93.745C64.273 87.7 75.035 72.34 73.164 52.46c-.772-8.2-3.934-16.888-8.922-24.289l21.532-2.45 8.537 8.299c-.057.035-.115.067-.169.11zm6.308 16.4a5.415 5.415 0 005.518-5.179l6.424 6.245-7.167 17.701c-2.43-1.301-7.155-3.326-11.394-2.151a8.61 8.61 0 00-2.833 1.37c.097-3.383.12-8.305-.228-14.009-.794-13.012 2.318-15.546 5.327-17.995.147-.12.26-.263.35-.417l9.386 9.124-10.712-.2c-.056 2.987 2.33 5.454 5.329 5.51zm-30.503 82.722c-32.004-14.795-51.064-46.01-51.064-83.785V18.438l20.953-4.972c7.173 1.795 13.862 6.387 19.135 12.693-18.14 4.921-31.538 20.916-33.248 40.442l-.043.475 26.522 46.797.887.013c.195.002.382.003.575.003 13.32 0 21.886-6.044 27.383-13.468l.155.099.833-1.292c.032-.048 3.177-4.869 8.674-8.593 7.21-4.885 14.92-5.681 22.908-2.375l.21.087c-8.463 19.755-23.597 35.536-43.88 44.905zM69.933 0L12.706 13.58v35.887c0 40.767 20.929 74.403 55.983 89.974l1.258.559 1.258-.559c35.379-15.716 56.5-49.35 56.5-90.023l-.57-35.847L69.932 0z"></path></svg>