<svg viewBox="0 0 140 140" className='houseIcon hufflepuffContent'><path fill-rule="evenodd" d="M117.288 83.27a32.503 32.503 0 00-4.285-8.36c-3.283-4.641-10.136-11.694-22.67-14.708 6.128-1.59 10.894-5.33 11.464-15.228l.13-2.247-2.097.691c-.08.024-8.484 2.277-27.653-10.066-4.7-3.049-12.119-5.403-19.382-3.338a7.02 7.02 0 00.117-1.26c0-3.823-3.044-6.934-6.784-6.934-3.742 0-6.785 3.11-6.785 6.934 0 3.053 1.942 5.646 4.629 6.568-3.164 3.2-5.674 7.594-7.409 13.066a33.722 33.722 0 00-1.031 4.118l-.223.56c-7.028 17.654-2.382 27.443 1.01 34.59 2.986 6.29 4.835 10.221-1.242 16.786-2.91-3.907-5.502-8.733-7.651-14.963-4.171-12.094-4.26-54.658-4.186-67.589 4.903.614 13.806.24 24.237-7.058 7.775-5.44 16.127-8.437 24.16-8.673 8.034.236 16.387 3.234 24.161 8.673 10.432 7.298 19.334 7.673 24.238 7.058.064 11.235.004 44.824-2.748 61.38zm-29.864 37.546c-2.431 1.374-4.893 2.773-7.329 4.311 3.874-10.535 2.4-22.323-1.34-29.025-2.893-5.187-8.29-9.423-16.035-12.6-.976-1.768-4.543-8.85-2.474-14.314 1.086-2.866 3.657-4.904 7.64-6.056 2.54-.735 5.286-1.091 8.055-1.327v.025h1.506c19.652 0 29.183 9.324 33.115 14.883 3.272 4.625 4.784 9.423 5.091 13.314-6.556 18.53-17.086 24.49-28.229 30.789zM67.066 60.169c-4.944 1.43-8.183 4.091-9.63 7.908-1.85 4.885-.244 10.465 1.232 13.98-8.657-3.35-15.073-8.513-18.262-14.758-1.52-2.981-2.267-6.184-2.297-9.566.612-6.148 3.106-10.402 7.431-12.628 5.856-3.017 13.222-1.464 16.578.604 18.774 11.559 35.292 3.647 35.985 3.304l.06-.029c-2.202 8.4-9.556 8.885-18.566 9.47-4.182.27-8.505.55-12.53 1.715zM52.39 33.374c2.037-.75 4.11-1.068 6.135-1.068 4.616 0 8.977 1.659 12.043 3.65 12.474 8.032 20.743 10.2 25.43 10.627-2.36.942-9.753 3.385-19.144 1.64.412-3.239-1.746-6.258-4.924-6.81-2.498-.433-4.892.786-6.125 2.877a41.688 41.688 0 01-2.13-1.219c-4.61-2.838-13.008-4.052-19.49-.715a15.624 15.624 0 00-2.689 1.762c2.65-5.44 6.298-9.05 10.894-10.744zm-6.261-.765c-2.081 0-3.772-1.73-3.772-3.855s1.69-3.855 3.772-3.855c2.08 0 3.772 1.73 3.772 3.855 0 2.126-1.693 3.855-3.772 3.855zm9.73 88.206c-6.762-3.82-13.297-7.518-18.858-13.97 7.835-8.294 5.138-13.983 2.03-20.532-2.718-5.729-5.978-12.605-3.49-23.903a24.238 24.238 0 002.195 6.312c3.965 7.768 12.28 13.963 23.418 17.452 7.34 2.934 12.383 6.788 14.985 11.453 3.84 6.88 4.961 20.376-.96 30.886a52.959 52.959 0 00-3.535 2.91c-4.995-4.511-10.469-7.604-15.785-10.608zm70.084-107.084l-3.982 1.484c-.399.147-9.903 3.529-22.76-5.465C90.446 3.625 80.944.253 71.725.002L71.632 0l-.08.002C62.333.253 52.831 3.625 44.075 9.75c-12.854 8.993-22.362 5.613-22.736 5.473l-4.03-1.58-.062 4.41c-.033 2.369-.773 58.196 4.496 73.472 7.303 21.177 19.452 28.04 31.2 34.679 5.98 3.379 11.63 6.57 16.57 11.62l2.13 2.176 2.13-2.177c4.941-5.049 10.588-8.24 16.567-11.618 11.745-6.639 23.89-13.502 31.193-34.68 5.268-15.276 4.53-71.103 4.496-73.473l-.087-4.321z"></path></svg>