<svg viewBox="0 0 140 140" className='houseIcon ravenclawContent' id='ravenclawCrest'><path fill-rule="evenodd" d="M92.269 117.75c13.667-15.345 15.808-29.847 13.963-42.427 2.023 2.297 4.197 3.51 6.505 3.612.102.004.203.006.303.006 1.885 0 3.733-.783 5.45-2.265-.55 5.374-1.285 9.866-2.268 12.688-5.583 16.036-14.33 22.812-23.953 28.387zm-21.651 13.68c-5.129-4.57-10.83-7.694-16.366-10.727-8.042-4.406-15.775-8.645-21.964-17.08 6.985 3.777 14.124 5.22 20.79 5.218 10.391 0 19.63-3.478 25.324-6.968 14.542-8.913 21.215-24.956 21.24-39.885a100.13 100.13 0 011.41 4.253l-.027.013.103.237c4.83 15.964 5.517 35.472-18.888 56.855-3.986 2.287-7.951 4.812-11.622 8.084zM65.733 30.98l3.401 7.413c-.266-.1-.526-.192-.771-.275-.31-.104-.617-.204-.91-.334-4.127-1.828-10.081-1.429-13.78-.918l2.814-4.721c1.532-.374 5.783-1.307 9.246-1.165zm11.094 68.26c-9.651 5.916-30.176 11.787-48.278-1.64-1.283-2.444-2.468-5.168-3.535-8.235-2.48-7.119-3.397-24.79-3.696-40.78l11.008-9.874C30.65 49.137 31.3 58.352 34.27 66.156c3.706 9.734 9.968 14.555 14.57 16.886 9.877 5.005 21.367 3.118 27.938-4.586 9.364-10.983 3.34-23.684.768-29.108-.323-.68-.59-1.242-.76-1.668a25.652 25.652 0 00-1.864-3.778l.075-.036-5.089-11.09 2.339 2.306 4.948-5.139-8.535.11-.235-.513 2.694-5.287 14.544 3.974c2.874 6.282 6.665 14.928 7.971 17.921l.232.686c.324.954.686 1.939 1.067 2.941 4.783 16.429-.412 38.618-18.107 49.464zM21.292 21.167c3.483.236 9.353.403 16.231-.337 13.444-1.444 24.817-5.776 33.095-12.577 8.277 6.801 19.65 11.133 33.094 12.577a94.74 94.74 0 0016.232.337c.134 8.642.346 32.51-.995 50.295-1.898 2.9-4.056 4.488-6.08 4.398-2.836-.125-5.837-3.48-8.449-9.447l-.488-1.118c-1.344-4.423-2.969-8.515-4.437-12.21a289.68 289.68 0 01-1.69-4.324 41.191 41.191 0 00-.858-2.621c-.017-.05-.19-.451-.478-1.114l-.22-.65-.056.02c-1.61-3.693-5.447-12.41-8.07-18.117l-.298-.65-18.284-4.995L65.84 27.9c-4.733-.183-10.467 1.348-10.724 1.42l-.591.16-7.012 11.77 3.476-.793c.096-.02 9.916-2.214 15.247.147.38.167.772.301 1.17.434.53.178 1.03.347 1.442.61 1.982 1.266 3.752 3.75 5.119 7.182.188.472.483 1.097.84 1.85 2.51 5.294 7.734 16.308-.33 25.764-5.658 6.638-15.641 8.22-24.275 3.845-15.873-8.039-17.67-28.722-14.06-45.397l1-4.614-15.886 14.25a851.525 851.525 0 01.037-23.361zm104.589-6.872l-3.36.454c-.315.041-31.734 4.07-49.843-12.826L70.618 0l-2.062 1.923c-18.064 16.854-49.53 12.868-49.84 12.826l-3.361-.454-.082 3.432c-.056 2.375-1.33 58.357 4.005 73.683 7.37 21.17 19.932 28.052 32.08 34.707 6.214 3.403 12.083 6.617 17.11 11.706l2.15 2.177 2.15-2.177c5.028-5.089 10.896-8.302 17.109-11.706 12.148-6.655 24.71-13.536 32.08-34.707 5.337-15.326 4.063-71.308 4.006-73.683l-.082-3.432z"></path></svg>